<svg width="32" height="33" viewBox="0 0 32 33" fill="none" xmlns="http://www.w3.org/2000/svg">
<path d="M19 4.5H10V15.5H7V17.5H10V20.5H7V22.5H10V28.5H12V22.5H21V20.5H12V17.5H19C20.5907 17.4981 22.1158 16.8654 23.2406 15.7406C24.3654 14.6158 24.9981 13.0907 25 11.5V10.5C24.9981 8.90927 24.3654 7.38422 23.2406 6.25941C22.1158 5.13459 20.5907 4.50185 19 4.5ZM23 11.5C22.9987 12.5605 22.5768 13.5771 21.827 14.327C21.0771 15.0768 20.0605 15.4987 19 15.5H12V6.5H19C20.0605 6.50132 21.0771 6.92318 21.827 7.67303C22.5768 8.42289 22.9987 9.43954 23 10.5V11.5Z" fill="#323433"/>
</svg>
