<svg width="40" height="40" viewBox="0 0 40 40" fill="none" xmlns="http://www.w3.org/2000/svg">
<path d="M20.7415 13.8519C20.7415 13.8519 20.7415 13.8519 21.8675 12.3704C23.1712 10.6519 25.0971 9.40747 27.4082 9.40747C31.0971 9.40747 34.0749 12.3852 34.0749 16.0741C34.0749 17.4519 33.6601 18.726 32.9489 19.7778C31.7489 21.5704 20.7415 33.1112 20.7415 33.1112C20.7415 33.1112 9.73413 21.5704 8.53413 19.7778C7.82302 18.726 7.4082 17.4519 7.4082 16.0741C7.4082 12.3852 10.386 9.40747 14.0749 9.40747C16.386 9.40747 18.3267 10.6519 19.6156 12.3704C20.7415 13.8519 20.7415 13.8519 20.7415 13.8519Z" fill="#9F7D5B"/>
<path d="M20.7415 13.8519C20.7415 13.8519 20.7415 13.8519 19.6156 12.3704C18.3119 10.6519 16.386 9.40747 14.0749 9.40747C10.386 9.40747 7.4082 12.3852 7.4082 16.0741C7.4082 17.4519 7.82302 18.726 8.53413 19.7778C9.73413 21.5704 20.7415 33.1112 20.7415 33.1112M20.7415 13.8519C20.7415 13.8519 20.7415 13.8519 21.8675 12.3704C23.1712 10.6519 25.0971 9.40747 27.4082 9.40747C31.0971 9.40747 34.0749 12.3852 34.0749 16.0741C34.0749 17.4519 33.6601 18.726 32.9489 19.7778C31.7489 21.5704 20.7415 33.1112 20.7415 33.1112" stroke="#9F7D5B" stroke-width="2" stroke-linecap="round" stroke-linejoin="round"/>
</svg>
