<svg width="230" height="40" viewBox="0 0 230 40" fill="none" xmlns="http://www.w3.org/2000/svg">
<path d="M20.8332 11.6667C20.8332 9.81667 22.3165 8.33334 24.1665 8.33334H29.9998C31.8332 8.33334 33.3332 9.83334 33.3332 11.6667V15.2667C31.3998 15.95 29.9998 17.7833 29.9998 19.95V23.3333H20.8332V11.6667ZM9.99984 19.9333V23.3333H19.1665V11.6667C19.1665 9.81667 17.6832 8.33334 15.8332 8.33334H9.99984C8.1665 8.33334 6.6665 9.83334 6.6665 11.6667V15.25C8.59984 15.9333 9.99984 17.7833 9.99984 19.9333ZM34.4332 16.7167C32.7998 16.9833 31.6665 18.5333 31.6665 20.2V25H8.33317V20C8.33317 19.1159 7.98198 18.2681 7.35686 17.643C6.73174 17.0179 5.88389 16.6667 4.99984 16.6667C4.11578 16.6667 3.26794 17.0179 2.64281 17.643C2.01769 18.2681 1.6665 19.1159 1.6665 20V28.3333C1.6665 30.1667 3.1665 31.6667 4.99984 31.6667V35H8.33317V31.6667H31.6665V35H34.9998V31.6667C36.8332 31.6667 38.3332 30.1667 38.3332 28.3333V20C38.3332 17.9833 36.5165 16.3667 34.4332 16.7167Z" fill="#323433"/>
<path d="M56.016 8.1L66.288 27.332H66.416L76.784 8.1H78.992V30.5H76.08V12.356H75.952L65.84 30.884H65.264L55.376 12.228H55.248V30.5H53.84V8.1H56.016ZM99.6118 23.204H87.4518C87.4518 24.5053 87.6438 25.572 88.0278 26.404C88.4118 27.236 88.8918 27.8867 89.4678 28.356C90.0438 28.8253 90.6624 29.156 91.3238 29.348C92.0064 29.5187 92.6464 29.604 93.2438 29.604C93.7771 29.604 94.2571 29.5507 94.6838 29.444C95.1318 29.316 95.5584 29.1453 95.9638 28.932C96.3691 28.7187 96.7638 28.452 97.1478 28.132C97.5531 27.812 97.9798 27.46 98.4278 27.076L99.4518 28.1C98.5984 28.996 97.5958 29.6893 96.4438 30.18C95.2918 30.6493 94.0331 30.884 92.6678 30.884C91.2598 30.884 90.0331 30.6493 88.9878 30.18C87.9638 29.6893 87.1104 29.0493 86.4278 28.26C85.7664 27.4493 85.2651 26.5427 84.9238 25.54C84.6038 24.516 84.4438 23.4707 84.4438 22.404C84.4438 21.124 84.6358 19.9827 85.0198 18.98C85.4038 17.956 85.9371 17.092 86.6198 16.388C87.3024 15.6627 88.1024 15.1187 89.0198 14.756C89.9371 14.372 90.9398 14.18 92.0278 14.18C93.0518 14.18 94.0224 14.3507 94.9398 14.692C95.8571 15.0333 96.6571 15.5453 97.3398 16.228C98.0438 16.9107 98.5984 17.7747 99.0037 18.82C99.4091 19.8653 99.6118 21.1027 99.6118 22.532V23.204ZM87.4518 21.924H96.8278C96.8278 19.8547 96.4011 18.2333 95.5478 17.06C94.7158 15.8653 93.5424 15.268 92.0278 15.268C91.2384 15.268 90.5558 15.46 89.9798 15.844C89.4038 16.2067 88.9238 16.6973 88.5398 17.316C88.1771 17.9347 87.8998 18.6493 87.7078 19.46C87.5371 20.2493 87.4518 21.0707 87.4518 21.924ZM103.779 8.1H106.499V17.124H106.627C106.84 16.5693 107.117 16.1107 107.459 15.748C107.821 15.364 108.227 15.0547 108.675 14.82C109.123 14.5853 109.592 14.4147 110.083 14.308C110.595 14.2013 111.107 14.148 111.619 14.148C112.685 14.148 113.667 14.3507 114.563 14.756C115.459 15.14 116.227 15.6947 116.867 16.42C117.528 17.1453 118.04 18.02 118.403 19.044C118.765 20.068 118.947 21.2093 118.947 22.468C118.947 23.748 118.765 24.9107 118.403 25.956C118.04 26.98 117.528 27.8653 116.867 28.612C116.227 29.3373 115.459 29.9027 114.563 30.308C113.667 30.692 112.685 30.884 111.619 30.884C109.08 30.884 107.416 29.892 106.627 27.908H106.499V30.5H103.779V8.1ZM106.499 24.1C106.499 24.804 106.605 25.476 106.819 26.116C107.053 26.7347 107.373 27.2787 107.779 27.748C108.184 28.196 108.653 28.5587 109.187 28.836C109.741 29.092 110.328 29.22 110.947 29.22C111.608 29.22 112.237 29.1027 112.835 28.868C113.453 28.612 113.987 28.2173 114.435 27.684C114.883 27.1507 115.235 26.4573 115.491 25.604C115.768 24.7507 115.907 23.7267 115.907 22.532C115.907 21.316 115.768 20.2813 115.491 19.428C115.235 18.5747 114.872 17.8813 114.403 17.348C113.955 16.7933 113.432 16.3987 112.835 16.164C112.237 15.908 111.608 15.78 110.947 15.78C110.349 15.78 109.784 15.908 109.251 16.164C108.717 16.3987 108.248 16.7613 107.843 17.252C107.437 17.7213 107.107 18.2973 106.851 18.98C106.616 19.6627 106.499 20.4413 106.499 21.316V24.1ZM137.299 23.204H125.139C125.139 24.5053 125.331 25.572 125.715 26.404C126.099 27.236 126.579 27.8867 127.155 28.356C127.731 28.8253 128.35 29.156 129.011 29.348C129.694 29.5187 130.334 29.604 130.931 29.604C131.465 29.604 131.945 29.5507 132.371 29.444C132.819 29.316 133.246 29.1453 133.651 28.932C134.057 28.7187 134.451 28.452 134.835 28.132C135.241 27.812 135.667 27.46 136.115 27.076L137.139 28.1C136.286 28.996 135.283 29.6893 134.131 30.18C132.979 30.6493 131.721 30.884 130.355 30.884C128.947 30.884 127.721 30.6493 126.675 30.18C125.651 29.6893 124.798 29.0493 124.115 28.26C123.454 27.4493 122.953 26.5427 122.611 25.54C122.291 24.516 122.131 23.4707 122.131 22.404C122.131 21.124 122.323 19.9827 122.707 18.98C123.091 17.956 123.625 17.092 124.307 16.388C124.99 15.6627 125.79 15.1187 126.707 14.756C127.625 14.372 128.627 14.18 129.715 14.18C130.739 14.18 131.71 14.3507 132.627 14.692C133.545 15.0333 134.345 15.5453 135.027 16.228C135.731 16.9107 136.286 17.7747 136.691 18.82C137.097 19.8653 137.299 21.1027 137.299 22.532V23.204ZM125.139 21.924H134.515C134.515 19.8547 134.089 18.2333 133.235 17.06C132.403 15.8653 131.23 15.268 129.715 15.268C128.926 15.268 128.243 15.46 127.667 15.844C127.091 16.2067 126.611 16.6973 126.227 17.316C125.865 17.9347 125.587 18.6493 125.395 19.46C125.225 20.2493 125.139 21.0707 125.139 21.924ZM144.826 8.1V30.5H142.106V8.1H144.826ZM165.971 21.156V30.5H163.059V8.1H170.547C171.784 8.1 172.861 8.28133 173.779 8.644C174.696 9.00667 175.453 9.49733 176.051 10.116C176.669 10.7133 177.128 11.428 177.427 12.26C177.725 13.0707 177.875 13.924 177.875 14.82C177.875 15.7587 177.704 16.644 177.363 17.476C177.021 18.2867 176.509 19.012 175.827 19.652C175.165 20.2707 174.333 20.7613 173.331 21.124C172.328 21.4867 171.176 21.668 169.875 21.668C169.107 21.668 168.403 21.6253 167.763 21.54C167.123 21.4333 166.525 21.3053 165.971 21.156ZM165.971 9.508V19.844C166.419 20.0147 166.92 20.132 167.475 20.196C168.029 20.2387 168.637 20.26 169.299 20.26C170.259 20.26 171.08 20.1 171.763 19.78C172.445 19.46 173.011 19.044 173.459 18.532C173.907 18.02 174.227 17.4547 174.419 16.836C174.632 16.196 174.739 15.5667 174.739 14.948C174.739 14.308 174.621 13.668 174.387 13.028C174.173 12.3667 173.843 11.78 173.395 11.268C172.947 10.7347 172.381 10.308 171.699 9.988C171.016 9.668 170.227 9.508 169.331 9.508H165.971ZM182.684 8.1H189.948C191.377 8.1 192.561 8.30267 193.5 8.708C194.438 9.092 195.174 9.58267 195.708 10.18C196.262 10.756 196.646 11.3853 196.86 12.068C197.094 12.7507 197.212 13.38 197.212 13.956C197.212 14.596 197.105 15.2573 196.892 15.94C196.678 16.6013 196.337 17.22 195.868 17.796C195.398 18.372 194.79 18.852 194.044 19.236C193.318 19.62 192.444 19.844 191.42 19.908V20.036L191.74 20.196C191.996 20.324 192.209 20.484 192.38 20.676C192.572 20.868 192.806 21.1773 193.084 21.604C193.382 22.0307 193.777 22.6387 194.268 23.428C194.758 24.196 195.452 25.2307 196.348 26.532C196.646 26.98 196.934 27.3853 197.212 27.748C197.489 28.0893 197.777 28.388 198.076 28.644C198.374 28.8787 198.694 29.06 199.036 29.188C199.377 29.316 199.772 29.38 200.22 29.38C200.326 29.38 200.433 29.38 200.54 29.38C200.646 29.3587 200.753 29.3373 200.86 29.316V30.5C200.561 30.6707 200.262 30.7773 199.964 30.82C199.665 30.8627 199.281 30.884 198.812 30.884C198.172 30.884 197.617 30.7987 197.148 30.628C196.7 30.4573 196.294 30.2333 195.932 29.956C195.569 29.6573 195.228 29.3053 194.908 28.9C194.609 28.4947 194.3 28.0467 193.98 27.556L191.452 23.812C191.068 23.2147 190.737 22.7133 190.46 22.308C190.182 21.9027 189.884 21.572 189.564 21.316C189.244 21.06 188.881 20.8787 188.476 20.772C188.092 20.6653 187.601 20.612 187.004 20.612H185.596V30.5H182.684V8.1ZM185.596 9.508V19.172H188.892C189.745 19.172 190.492 19.0227 191.132 18.724C191.793 18.4253 192.348 18.0413 192.796 17.572C193.244 17.0813 193.574 16.548 193.788 15.972C194.022 15.3747 194.14 14.788 194.14 14.212C194.14 13.5293 194.012 12.9 193.756 12.324C193.521 11.748 193.169 11.2573 192.7 10.852C192.23 10.4253 191.665 10.0947 191.004 9.86C190.364 9.62533 189.638 9.508 188.828 9.508H185.596ZM203.413 19.3C203.413 18.084 203.637 16.7933 204.085 15.428C204.554 14.0627 205.279 12.8147 206.261 11.684C207.242 10.532 208.49 9.58267 210.005 8.836C211.519 8.08933 213.333 7.716 215.445 7.716C217.578 7.716 219.423 8.1 220.981 8.868C222.559 9.61467 223.861 10.564 224.885 11.716C225.909 12.868 226.666 14.1267 227.157 15.492C227.647 16.836 227.893 18.1053 227.893 19.3C227.893 20.0893 227.775 20.9213 227.541 21.796C227.327 22.6707 226.997 23.5453 226.549 24.42C226.122 25.2733 225.567 26.0947 224.885 26.884C224.202 27.652 223.391 28.3347 222.453 28.932C221.535 29.5293 220.49 30.0093 219.317 30.372C218.165 30.7133 216.874 30.884 215.445 30.884C213.333 30.884 211.519 30.5107 210.005 29.764C208.49 28.996 207.242 28.036 206.261 26.884C205.279 25.732 204.554 24.484 204.085 23.14C203.637 21.7747 203.413 20.4947 203.413 19.3ZM206.549 19.3C206.549 20.7933 206.773 22.1693 207.221 23.428C207.69 24.6653 208.319 25.732 209.109 26.628C209.919 27.524 210.869 28.228 211.957 28.74C213.045 29.2307 214.229 29.476 215.509 29.476C216.767 29.476 217.951 29.2307 219.061 28.74C220.191 28.228 221.173 27.524 222.005 26.628C222.858 25.732 223.53 24.6653 224.021 23.428C224.511 22.1693 224.757 20.7933 224.757 19.3C224.757 17.8067 224.511 16.4413 224.021 15.204C223.53 13.9453 222.858 12.868 222.005 11.972C221.173 11.076 220.191 10.3827 219.061 9.892C217.951 9.38 216.767 9.124 215.509 9.124C214.229 9.124 213.045 9.38 211.957 9.892C210.869 10.3827 209.919 11.076 209.109 11.972C208.319 12.868 207.69 13.9453 207.221 15.204C206.773 16.4413 206.549 17.8067 206.549 19.3Z" fill="#323433"/>
</svg>
