<svg width="20" height="20" viewBox="0 0 20 20" fill="none" xmlns="http://www.w3.org/2000/svg">
<path d="M9.45312 0.0234375C8.19531 0.179688 7.14453 0.691406 6.26953 1.57812C5.49219 2.36328 5.04688 3.19922 4.81641 4.29688C4.72266 4.75781 4.72266 5.78906 4.81641 6.25C5.04688 7.34766 5.49609 8.1875 6.26953 8.96875C7.05469 9.76172 7.91406 10.2266 9.02344 10.457C9.48047 10.5508 10.5078 10.5508 10.9844 10.457C12.0391 10.2461 12.9141 9.77734 13.6953 9.00391C14.4844 8.22656 14.9531 7.35938 15.1836 6.25C15.2773 5.78906 15.2773 4.75781 15.1836 4.29688C15.0312 3.57422 14.7539 2.90625 14.3555 2.30469C14.1094 1.93359 13.3477 1.16797 12.9844 0.929688C12.3555 0.511719 11.6758 0.226562 11.0078 0.0976562C10.6914 0.0351562 9.72656 -0.0117188 9.45312 0.0234375ZM10.9375 1.28125C11.7109 1.48438 12.3633 1.85156 12.8945 2.37891C13.4219 2.90625 13.7773 3.53906 13.9961 4.33594C14.1094 4.76172 14.1094 5.78516 13.9961 6.21094C13.7773 7.00781 13.4219 7.64062 12.8945 8.16797C12.3672 8.69531 11.7344 9.05078 10.9375 9.26953C10.5117 9.38281 9.48828 9.38281 9.0625 9.26953C8.26562 9.05078 7.63281 8.69531 7.10547 8.16797C5.59766 6.65625 5.5 4.26172 6.88281 2.61719C7.48047 1.90625 8.46094 1.35547 9.375 1.21484C9.75781 1.15625 10.5898 1.19141 10.9375 1.28125Z" fill="#323433"/>
<path d="M7.90236 11.7812C5.71486 12.0469 3.7422 13.2852 2.47267 15.1953C1.72658 16.3125 1.30079 17.6328 1.22658 19.043C1.20314 19.4766 1.20704 19.5273 1.28517 19.6797C1.33986 19.7891 1.41798 19.8672 1.52345 19.9219C1.67579 20 1.73439 20 10 20C18.2656 20 18.3242 20 18.4766 19.9219C18.582 19.8672 18.6602 19.7891 18.7149 19.6797C18.793 19.5273 18.7969 19.4766 18.7735 19.043C18.6719 17.1172 17.9375 15.4297 16.6016 14.0469C15.336 12.7383 13.7031 11.9414 11.918 11.7578C11.3281 11.6992 8.44533 11.7148 7.90236 11.7812ZM11.8555 12.9297C14.4453 13.2266 16.6172 15.0508 17.3399 17.543C17.457 17.9375 17.5781 18.5508 17.5781 18.7344V18.8281H10H2.42189V18.7148C2.42189 18.5039 2.58204 17.7695 2.71095 17.3672C3.13673 16.0703 3.94923 14.9531 5.06642 14.1211C5.46486 13.8242 6.34767 13.3711 6.85548 13.207C7.2422 13.0781 7.69923 12.9805 8.11329 12.9336C8.51173 12.8867 11.4492 12.8867 11.8555 12.9297Z" fill="#323433"/>
</svg>
