<svg width="20" height="20" viewBox="0 0 20 20" fill="none" xmlns="http://www.w3.org/2000/svg">
<path d="M9.45312 0.0234375C8.19531 0.179688 7.14453 0.691406 6.26953 1.57812C5.49219 2.36328 5.04688 3.19922 4.81641 4.29688C4.72266 4.75781 4.72266 5.78906 4.81641 6.25C5.04688 7.34766 5.49609 8.1875 6.26953 8.96875C7.05469 9.76172 7.91406 10.2266 9.02344 10.457C9.48047 10.5508 10.5078 10.5508 10.9844 10.457C12.0391 10.2461 12.9141 9.77734 13.6953 9.00391C14.4844 8.22656 14.9531 7.35938 15.1836 6.25C15.2773 5.78906 15.2773 4.75781 15.1836 4.29688C15.0312 3.57422 14.7539 2.90625 14.3555 2.30469C14.1094 1.93359 13.3477 1.16797 12.9844 0.929688C12.3555 0.511719 11.6758 0.226562 11.0078 0.0976562C10.6914 0.0351562 9.72656 -0.0117188 9.45312 0.0234375ZM10.9375 1.28125C11.7109 1.48438 12.3633 1.85156 12.8945 2.37891C13.4219 2.90625 13.7773 3.53906 13.9961 4.33594C14.1094 4.76172 14.1094 5.78516 13.9961 6.21094C13.7773 7.00781 13.4219 7.64062 12.8945 8.16797C12.3672 8.69531 11.7344 9.05078 10.9375 9.26953C10.5117 9.38281 9.48828 9.38281 9.0625 9.26953C8.26562 9.05078 7.63281 8.69531 7.10547 8.16797C5.59766 6.65625 5.5 4.26172 6.88281 2.61719C7.48047 1.90625 8.46094 1.35547 9.375 1.21484C9.75781 1.15625 10.5898 1.19141 10.9375 1.28125Z" fill="#323433"/>
<path d="M7.90321 11.7812C5.71571 12.0469 3.74306 13.2852 2.47352 15.1953C1.72743 16.3125 1.30165 17.6328 1.22743 19.043C1.20399 19.4766 1.2079 19.5273 1.28602 19.6797C1.34071 19.7891 1.41884 19.8672 1.52431 19.9219C1.67665 20 1.73524 20 10.0009 20C18.2665 20 18.3251 20 18.4774 19.9219C18.5829 19.8672 18.661 19.7891 18.7157 19.6797C18.7938 19.5273 18.7977 19.4766 18.7743 19.043C18.6727 17.1172 17.9384 15.4297 16.6024 14.0469C15.3368 12.7383 13.704 11.9414 11.9188 11.7578C11.329 11.6992 8.44618 11.7148 7.90321 11.7812ZM11.8563 12.9297C14.4462 13.2266 16.6181 15.0508 17.3407 17.543C17.4579 17.9375 17.579 18.5508 17.579 18.7344V18.8281H10.0009H2.42274V18.7148C2.42274 18.5039 2.5829 17.7695 2.71181 17.3672C3.13759 16.0703 3.95009 14.9531 5.06727 14.1211C5.46571 13.8242 6.34852 13.3711 6.85634 13.207C7.24306 13.0781 7.70009 12.9805 8.11415 12.9336C8.51259 12.8867 11.4501 12.8867 11.8563 12.9297Z" fill="#323433"/>
</svg>
